<svg width="16" height="25" viewBox="0 0 16 25" fill="none" xmlns="http://www.w3.org/2000/svg">
<path fill-rule="evenodd" clip-rule="evenodd" d="M8 12.5C8 10.2909 9.79086 8.5 12 8.5C14.2091 8.5 16 10.2909 16 12.5C16 14.7091 14.2091 16.5 12 16.5C9.79086 16.5 8 14.7091 8 12.5Z" fill="#1ABCFE"/>
<path fill-rule="evenodd" clip-rule="evenodd" d="M0 20.5C0 18.2909 1.79086 16.5 4 16.5H8V20.5C8 22.7091 6.20914 24.5 4 24.5C1.79086 24.5 0 22.7091 0 20.5Z" fill="#0ACF83"/>
<path fill-rule="evenodd" clip-rule="evenodd" d="M8 0.5V8.5H12C14.2091 8.5 16 6.70914 16 4.5C16 2.29086 14.2091 0.5 12 0.5H8Z" fill="#FF7262"/>
<path fill-rule="evenodd" clip-rule="evenodd" d="M0 4.5C0 6.70914 1.79086 8.5 4 8.5H8V0.5H4C1.79086 0.5 0 2.29086 0 4.5Z" fill="#EB4C3D"/>
<path fill-rule="evenodd" clip-rule="evenodd" d="M0 12.5C0 14.7091 1.79086 16.5 4 16.5H8V8.5H4C1.79086 8.5 0 10.2909 0 12.5Z" fill="#6D4EB1"/>
</svg>
