<svg width="25" height="25" viewBox="0 0 25 25" fill="none" xmlns="http://www.w3.org/2000/svg">
<g clip-path="url(#clip0_850_307)">
<path d="M17.4534 8.83436L17.4446 8.83061C17.4396 8.82873 17.4346 8.82686 17.4303 8.82248C17.4231 8.81478 17.4178 8.80553 17.4147 8.79546C17.4117 8.78538 17.411 8.77474 17.4127 8.76436L17.8965 5.81061L20.1652 8.07686L17.8058 9.07936C17.7992 9.082 17.7922 9.08327 17.7851 9.08311H17.7757C17.7726 9.08123 17.7695 9.07873 17.7632 9.07248C17.6754 8.97485 17.5704 8.89414 17.4534 8.83436ZM20.7441 8.65436L23.1699 11.0769C23.6737 11.5806 23.926 11.8319 24.018 12.1231C24.0317 12.1662 24.043 12.2094 24.0518 12.2537L18.2545 9.80186C18.2514 9.80057 18.2483 9.79932 18.2451 9.79811C18.222 9.78873 18.195 9.77811 18.195 9.75436C18.195 9.73061 18.2226 9.71936 18.2457 9.70998L18.2532 9.70686L20.7441 8.65436ZM23.9529 13.0312C23.8277 13.2662 23.5836 13.51 23.1706 13.9231L20.4356 16.6537L16.8983 15.9181L16.8795 15.9144C16.8482 15.9094 16.815 15.9037 16.815 15.8756C16.8016 15.7299 16.7583 15.5885 16.6878 15.4602C16.6172 15.3319 16.521 15.2195 16.4051 15.13C16.3907 15.1156 16.3945 15.0931 16.3989 15.0725C16.3989 15.0694 16.3989 15.0662 16.4001 15.0637L17.0654 10.985L17.0679 10.9712C17.0716 10.94 17.0773 10.9037 17.1054 10.9037C17.248 10.886 17.3856 10.8402 17.5103 10.7688C17.6349 10.6974 17.7441 10.602 17.8314 10.4881C17.8371 10.4819 17.8408 10.475 17.8483 10.4712C17.8683 10.4619 17.8921 10.4712 17.9128 10.48L23.9522 13.0312H23.9529ZM19.8066 17.2819L15.3092 21.7731L16.079 17.0481L16.0803 17.0419C16.0809 17.0356 16.0822 17.0294 16.084 17.0237C16.0903 17.0087 16.1066 17.0025 16.1222 16.9962L16.1297 16.9931C16.2983 16.9213 16.4474 16.8106 16.5647 16.67C16.5797 16.6525 16.5979 16.6356 16.621 16.6325C16.627 16.6315 16.6332 16.6315 16.6392 16.6325L19.806 17.2825L19.8066 17.2819ZM14.3573 22.7237L13.8504 23.23L8.2459 15.1412C8.24387 15.1383 8.24179 15.1354 8.23964 15.1325C8.23088 15.1206 8.22149 15.1087 8.22337 15.095C8.22337 15.085 8.23025 15.0762 8.23714 15.0687L8.24339 15.0606C8.26029 15.0356 8.27469 15.0106 8.29033 14.9837L8.30285 14.9619L8.30473 14.96C8.31349 14.945 8.32163 14.9306 8.33665 14.9225C8.34979 14.9162 8.36794 14.9187 8.38233 14.9219L14.5914 16.2006C14.6088 16.2033 14.6251 16.2104 14.639 16.2212C14.6471 16.2294 14.649 16.2381 14.6509 16.2481C14.6942 16.4118 14.7748 16.5632 14.8864 16.6906C14.998 16.818 15.1376 16.9179 15.2942 16.9825C15.3117 16.9912 15.3042 17.0106 15.2961 17.0312C15.292 17.0403 15.2889 17.0497 15.2867 17.0594C15.2085 17.5344 14.5376 21.6206 14.3573 22.7237ZM13.2984 23.7806C12.9248 24.15 12.7045 24.3456 12.4554 24.4244C12.2098 24.5019 11.9462 24.5019 11.7006 24.4244C11.4089 24.3319 11.1567 24.0806 10.6529 23.5769L5.02465 17.9562L6.49477 15.6794C6.50165 15.6681 6.50854 15.6581 6.5198 15.65C6.53545 15.6387 6.55798 15.6437 6.57676 15.65C6.91419 15.7516 7.27648 15.7333 7.6019 15.5981C7.6188 15.5919 7.63569 15.5875 7.64884 15.5994C7.65541 15.6053 7.66129 15.6121 7.66636 15.6194L13.2984 23.7812V23.7806ZM4.48203 17.4144L3.19091 16.125L5.74062 15.0387C5.74714 15.0359 5.75416 15.0344 5.76127 15.0344C5.78255 15.0344 5.79507 15.0556 5.80633 15.075C5.83196 15.1144 5.8591 15.1527 5.88769 15.19L5.89583 15.2C5.90334 15.2106 5.89833 15.2212 5.89082 15.2312L4.48266 17.4144H4.48203ZM2.6195 15.5544L0.986034 13.9231C0.708157 13.6456 0.506633 13.4444 0.366442 13.2712L5.33319 14.3C5.33943 14.3011 5.34569 14.3022 5.35197 14.3031C5.38263 14.3081 5.41643 14.3137 5.41643 14.3425C5.41643 14.3737 5.3795 14.3881 5.34821 14.4L5.33382 14.4062L2.6195 15.5544ZM0.0810547 12.4325C0.086715 12.3274 0.10564 12.2235 0.137381 12.1231C0.230007 11.8319 0.481599 11.5806 0.986034 11.0769L3.07637 8.98936C4.03883 10.3843 5.00389 11.7774 5.97156 13.1687C5.98846 13.1912 6.00723 13.2162 5.98783 13.235C5.89646 13.3356 5.80508 13.4456 5.74062 13.565C5.73363 13.5803 5.72286 13.5937 5.70933 13.6037C5.70119 13.6087 5.69243 13.6069 5.68304 13.605H5.68179L0.0810547 12.4319V12.4325ZM3.63589 8.43061L6.44533 5.62373C6.71006 5.73936 7.67199 6.14498 8.53129 6.50748C9.18217 6.78248 9.77548 7.03248 9.96198 7.11373C9.98076 7.12123 9.99765 7.12873 10.0058 7.14748C10.0108 7.15873 10.0083 7.17311 10.0058 7.18498C9.9613 7.38759 9.96792 7.59807 10.0251 7.79749C10.0822 7.99691 10.188 8.17903 10.3331 8.32748C10.3519 8.34623 10.3331 8.37311 10.3168 8.39623L10.3081 8.40936L7.4542 12.8237C7.44669 12.8362 7.4398 12.8469 7.42729 12.855C7.41227 12.8644 7.39099 12.86 7.37346 12.8556C7.26247 12.8266 7.14836 12.811 7.03363 12.8094C6.93099 12.8094 6.81959 12.8281 6.70693 12.8487H6.70631C6.69379 12.8506 6.68252 12.8531 6.67251 12.8456C6.66145 12.8366 6.65194 12.8258 6.64435 12.8137L3.63526 8.43061H3.63589ZM7.01423 5.05686L10.6529 1.42311C11.1567 0.919984 11.4089 0.668109 11.7006 0.576234C11.9462 0.498677 12.2098 0.498677 12.4554 0.576234C12.747 0.668109 12.9992 0.919984 13.503 1.42311L14.2916 2.21061L11.7037 6.21311C11.6973 6.22476 11.6886 6.23497 11.6781 6.24311C11.6624 6.25373 11.6405 6.24936 11.6217 6.24311C11.4177 6.18127 11.2017 6.17002 10.9923 6.21031C10.7829 6.2506 10.5865 6.34123 10.4201 6.47436C10.4032 6.49186 10.3782 6.48186 10.3569 6.47248C10.0189 6.32561 7.39036 5.21623 7.01423 5.05686ZM14.8411 2.75936L17.2306 5.14561L16.6548 8.70686V8.71623C16.6543 8.72435 16.6526 8.73235 16.6498 8.73998C16.6436 8.75248 16.631 8.75498 16.6185 8.75873C16.4954 8.79597 16.3795 8.85365 16.2756 8.92936C16.2711 8.93254 16.2669 8.93609 16.263 8.93998C16.2562 8.94748 16.2493 8.95436 16.238 8.95561C16.2288 8.95589 16.2197 8.95441 16.2111 8.95123L12.5699 7.40623L12.563 7.40311C12.5399 7.39373 12.5123 7.38248 12.5123 7.35873C12.4909 7.1561 12.4246 6.96076 12.3183 6.78686C12.3008 6.75811 12.2814 6.72811 12.2964 6.69873L14.8411 2.75936ZM12.3803 8.13811L15.7937 9.58186C15.8124 9.59061 15.8331 9.59873 15.8412 9.61811C15.8445 9.62976 15.8445 9.64208 15.8412 9.65373C15.8312 9.70373 15.8224 9.76061 15.8224 9.81811V9.91373C15.8224 9.93748 15.798 9.94748 15.7755 9.95686L15.7686 9.95936C15.2279 10.19 8.17706 13.1925 8.16642 13.1925C8.15578 13.1925 8.14451 13.1925 8.13387 13.1819C8.1151 13.1631 8.13387 13.1369 8.15077 13.1131C8.15376 13.109 8.15668 13.1048 8.15953 13.1006L10.9646 8.76311L10.9696 8.75561C10.9859 8.72936 11.0046 8.69998 11.0347 8.69998L11.0629 8.70436C11.1267 8.71311 11.183 8.72123 11.24 8.72123C11.6655 8.72123 12.0598 8.51436 12.2977 8.16061C12.3033 8.15116 12.3105 8.14271 12.3189 8.13561C12.3358 8.12311 12.3609 8.12936 12.3803 8.13811ZM8.4712 13.8787L16.1566 10.6056C16.1566 10.6056 16.1679 10.6056 16.1786 10.6162C16.2205 10.6581 16.2562 10.6862 16.2906 10.7125L16.3075 10.7231C16.3231 10.7319 16.3388 10.7419 16.34 10.7581C16.34 10.7644 16.34 10.7681 16.3388 10.7737L15.6804 14.8125L15.6779 14.8287C15.6735 14.86 15.6691 14.8956 15.6397 14.8956C15.4642 14.9074 15.2942 14.9618 15.1444 15.0541C14.9947 15.1463 14.8698 15.2736 14.7804 15.425L14.7773 15.43C14.7685 15.4444 14.7604 15.4581 14.746 15.4656C14.7328 15.4719 14.7159 15.4694 14.7022 15.4662L8.57322 14.2037C8.56696 14.2025 8.47809 13.8794 8.4712 13.8787Z" fill="url(#paint0_radial_850_307)"/>
</g>
<defs>
<radialGradient id="paint0_radial_850_307" cx="0" cy="0" r="1" gradientUnits="userSpaceOnUse" gradientTransform="translate(-0.723744 12.1622) rotate(90) scale(23.9381 27.675)">
<stop stop-color="#20C6B7"/>
<stop offset="1" stop-color="#4D9ABF"/>
</radialGradient>
<clipPath id="clip0_850_307">
<rect width="25" height="24" fill="white" transform="translate(0 0.5)"/>
</clipPath>
</defs>
</svg>
