<svg width="43" height="246" viewBox="0 0 43 246" fill="none" xmlns="http://www.w3.org/2000/svg">
<path d="M33.6438 244.694C33.343 244.36 33.0924 244.009 32.8918 243.641C32.6913 243.24 32.19 242.872 31.3879 242.538C30.5858 242.204 29.5163 242.037 28.1795 242.037H8.72834C7.3915 242.037 6.32202 242.204 5.51991 242.538C4.7178 242.839 4.21649 243.19 4.01596 243.591C3.81543 243.959 3.56477 244.31 3.26398 244.644C2.96319 244.945 2.57885 245.095 2.11095 245.095C1.67648 245.095 1.37569 244.894 1.20858 244.493C1.00806 244.092 0.907793 243.407 0.907793 242.438L0.907793 235.72C0.907793 233.949 1.30885 233.063 2.11095 233.063C2.57885 233.063 2.96319 233.23 3.26398 233.565C3.56477 233.899 3.81543 234.267 4.01596 234.668C4.21649 235.035 4.7178 235.386 5.51991 235.72C6.32202 236.055 7.3915 236.222 8.72834 236.222H13.7415C14.6773 236.222 15.2455 236.055 15.446 235.72C15.8136 235.186 15.9974 232.997 15.9974 229.153V227.048C15.9974 222.402 15.8638 219.762 15.5964 219.127C15.1619 218.625 14.5436 218.375 13.7415 218.375H8.72834C7.3915 218.375 6.32202 218.542 5.51991 218.876C4.7178 219.177 4.21649 219.511 4.01596 219.879C3.81543 220.246 3.56477 220.597 3.26398 220.932C2.96319 221.232 2.57885 221.383 2.11095 221.383C1.67648 221.383 1.37569 221.199 1.20858 220.831C1.00806 220.43 0.907793 219.745 0.907793 218.776V212.008C0.907793 210.27 1.30885 209.401 2.11095 209.401C2.47859 209.401 2.79609 209.518 3.06346 209.752C3.29741 209.953 3.51464 210.203 3.71517 210.504C3.9157 210.805 4.16636 211.106 4.46715 211.406C4.76794 211.707 5.28596 211.975 6.02123 212.209C6.72307 212.409 7.62544 212.509 8.72834 212.509H28.1795C29.5163 212.509 30.5858 212.359 31.3879 212.058C32.19 211.724 32.6913 211.373 32.8918 211.005C33.0924 210.638 33.343 210.304 33.6438 210.003C33.9446 209.669 34.3289 209.501 34.7968 209.501C35.2313 209.501 35.5488 209.702 35.7493 210.103C35.9164 210.471 36 211.139 36 212.108V218.876C36 220.614 35.5989 221.483 34.7968 221.483C34.4292 221.483 34.1284 221.383 33.8945 221.182C33.6271 220.948 33.3932 220.681 33.1926 220.38C32.9921 220.079 32.7414 219.778 32.4406 219.478C32.1399 219.177 31.6385 218.926 30.9367 218.726C30.2014 218.492 29.2823 218.375 28.1795 218.375H21.0106C20.0748 218.375 19.49 218.542 19.256 218.876C18.9218 219.411 18.7547 221.583 18.7547 225.393V227.098C18.7547 231.977 18.8884 234.751 19.1557 235.42C19.6571 235.921 20.2753 236.188 21.0106 236.222H28.1795C29.5163 236.222 30.5858 236.071 31.3879 235.77C32.19 235.436 32.6913 235.085 32.8918 234.718C33.0924 234.317 33.343 233.966 33.6438 233.665C33.9446 233.331 34.3289 233.164 34.7968 233.164C35.2313 233.164 35.5488 233.364 35.7493 233.765C35.9164 234.166 36 234.851 36 235.821V242.538C36 244.31 35.5989 245.195 34.7968 245.195C34.3289 245.195 33.9446 245.028 33.6438 244.694ZM33.7942 205.986C33.5268 205.752 33.2929 205.484 33.0924 205.183C32.8918 204.849 32.4741 204.565 31.8391 204.331C31.1706 204.064 30.3017 203.93 29.2322 203.93L19.6571 203.98C18.7881 203.98 18.0696 204.114 17.5014 204.381C16.8998 204.615 16.5155 204.883 16.3484 205.183C16.1478 205.484 15.9306 205.768 15.6967 206.036C15.4293 206.27 15.1285 206.387 14.7943 206.387C14.5269 206.387 14.293 206.286 14.0924 206.086C13.8919 205.885 13.658 205.484 13.3906 204.883C12.8893 203.88 12.4548 202.811 12.0872 201.674C11.6861 200.505 11.4689 199.719 11.4355 199.318C11.4355 198.583 11.8699 198.215 12.7389 198.215L19.6571 198.265H29.2322C30.3017 198.265 31.1706 198.148 31.8391 197.914C32.4741 197.647 32.8918 197.38 33.0924 197.112C33.2929 196.811 33.5435 196.544 33.8443 196.31C34.1451 196.043 34.496 195.909 34.8971 195.909C35.6324 195.909 36 196.594 36 197.965V204.231C36 205.668 35.6157 206.387 34.847 206.387C34.4459 206.387 34.095 206.253 33.7942 205.986ZM5.41965 205.534C4.35017 205.501 3.38096 205 2.51201 204.03C1.64306 203.061 1.20858 202.075 1.20858 201.073C1.20858 200.939 1.20858 200.822 1.20858 200.722C1.24201 199.953 1.52608 199.318 2.06082 198.817C2.59556 198.282 3.21385 198.015 3.9157 198.015C3.98254 198.015 4.03267 198.015 4.06609 198.015C5.10215 198.048 6.05465 198.566 6.9236 199.569C7.75913 200.571 8.17689 201.591 8.17689 202.627C8.17689 202.727 8.17689 202.811 8.17689 202.877C8.14347 203.713 7.89281 204.365 7.42492 204.833C6.9236 205.3 6.33873 205.534 5.67031 205.534C5.60346 205.534 5.51991 205.534 5.41965 205.534ZM30.7362 190.847C30.1012 190.179 29.7837 189.41 29.7837 188.541C29.7837 187.472 30.1346 186.62 30.8364 185.985C31.5383 185.316 32.6078 184.982 34.0449 184.982C36.4178 184.982 38.4565 185.617 40.1609 186.887C41.8988 188.157 42.7678 189.343 42.7678 190.446C42.7678 191.014 42.5171 191.299 42.0158 191.299C41.8487 191.299 41.3307 190.948 40.4617 190.246C39.5928 189.544 38.8074 189.193 38.1055 189.193C37.5708 189.193 36.8689 189.644 36 190.547C35.1645 191.416 34.2454 191.85 33.2428 191.85C32.2067 191.85 31.3712 191.516 30.7362 190.847ZM34.7968 172.295C34.3289 172.295 33.9446 172.128 33.6438 171.793C33.343 171.459 33.0924 171.108 32.8918 170.741C32.6913 170.34 32.19 169.972 31.3879 169.638C30.5858 169.304 29.5163 169.136 28.1795 169.136H8.72834C7.3915 169.136 6.32202 169.304 5.51991 169.638C4.7178 169.939 4.21649 170.289 4.01596 170.691C3.81543 171.058 3.56477 171.409 3.26398 171.743C2.96319 172.044 2.57885 172.194 2.11095 172.194C1.67648 172.194 1.37569 171.994 1.20858 171.593C1.00806 171.192 0.907793 170.507 0.907793 169.537L0.907793 162.82C0.907793 161.049 1.30885 160.163 2.11095 160.163C2.57885 160.163 2.96319 160.33 3.26398 160.664C3.56477 160.998 3.81543 161.366 4.01596 161.767C4.21649 162.135 4.7178 162.486 5.51991 162.82C6.32202 163.154 7.3915 163.321 8.72834 163.321H28.1795C29.5163 163.321 30.5858 163.171 31.3879 162.87C32.19 162.536 32.6913 162.185 32.8918 161.817C33.0924 161.416 33.343 161.065 33.6438 160.764C33.9446 160.43 34.3289 160.263 34.7968 160.263C35.2313 160.263 35.5488 160.464 35.7493 160.865C35.9164 161.266 36 161.951 36 162.92V169.638C36 171.409 35.5989 172.295 34.7968 172.295ZM13.8418 154.876C13.8418 155.444 13.6078 155.729 13.1399 155.729C12.9728 155.729 12.4548 155.378 11.5859 154.676C10.6835 153.974 9.88137 153.623 9.17953 153.623C8.64479 153.623 7.95966 154.074 7.12413 154.977C6.25518 155.846 5.31938 156.28 4.31675 156.28C3.31412 156.28 2.4953 155.946 1.86029 155.277C1.19187 154.609 0.857661 153.84 0.857661 152.971C0.857661 151.902 1.20858 151.05 1.91043 150.415C2.61227 149.746 3.68175 149.412 5.11886 149.412C7.49176 149.412 9.54716 150.047 11.2851 151.317C12.9895 152.587 13.8418 153.773 13.8418 154.876ZM33.7942 145.006C33.5268 144.772 33.2929 144.505 33.0924 144.204C32.8918 143.87 32.4741 143.586 31.8391 143.352C31.1706 143.085 30.3017 142.951 29.2322 142.951H19.4064C17.8022 142.951 16.6659 143.469 15.9974 144.505C15.563 145.106 15.1285 145.407 14.694 145.407C14.3598 145.407 14.0924 145.307 13.8919 145.106C13.658 144.906 13.4073 144.505 13.1399 143.903C12.1373 141.664 11.6026 140.01 11.5357 138.94C11.5357 138.238 11.9702 137.888 12.8391 137.888L16.6993 137.938C13.1901 135.932 11.4355 133.041 11.4355 129.265C11.4355 125.221 13.2068 122.581 16.7494 121.344C15.0115 120.408 13.6914 119.188 12.789 117.684C11.8866 116.18 11.4355 114.543 11.4355 112.772C11.4355 110.131 12.2376 108.176 13.8418 106.906C15.446 105.603 18.1197 104.617 21.8629 103.948L30.5356 102.294C31.4046 102.127 32.0897 101.826 32.591 101.392C33.0924 100.924 33.4934 100.523 33.7942 100.188C34.095 99.8208 34.4626 99.637 34.8971 99.637C35.6324 99.637 36 100.339 36 101.743V107.909C36 109.312 35.6157 110.014 34.847 110.014C34.4459 110.014 34.095 109.814 33.7942 109.413C33.46 108.978 33.0756 108.627 32.6412 108.36C32.1733 108.059 31.672 107.909 31.1372 107.909C30.8699 107.909 30.5858 107.942 30.285 108.009L22.1636 109.513C21.1944 109.68 20.4759 109.814 20.008 109.914C19.5401 110.014 18.9385 110.198 18.2032 110.465C17.4346 110.733 16.8831 111.034 16.5489 111.368C16.1813 111.702 15.8638 112.153 15.5964 112.721C15.2956 113.29 15.1452 113.958 15.1452 114.727C15.1786 116.264 15.847 117.618 17.1505 118.787C18.4539 119.924 20.2921 120.525 22.665 120.592L29.2322 120.542C30.3017 120.542 31.1706 120.425 31.8391 120.191C32.4741 119.924 32.8918 119.656 33.0924 119.389C33.2929 119.088 33.5435 118.821 33.8443 118.587C34.1451 118.319 34.496 118.186 34.8971 118.186C35.6324 118.186 36 118.871 36 120.241V126.508C36 127.945 35.6157 128.663 34.847 128.663C34.4459 128.663 34.1117 128.546 33.8443 128.312C33.5435 128.045 33.2929 127.761 33.0924 127.46C32.8918 127.126 32.4741 126.842 31.8391 126.608C31.1706 126.341 30.3017 126.207 29.2322 126.207H22.4644C20.125 126.207 18.3035 126.558 17.0001 127.26C15.6967 127.961 15.0449 129.198 15.0449 130.969C15.0449 131.036 15.0449 131.086 15.0449 131.12C15.0449 132.791 15.7635 134.245 17.2006 135.481C18.6043 136.684 20.5594 137.286 23.066 137.286H29.2322C30.3017 137.286 31.1706 137.169 31.8391 136.935C32.4741 136.668 32.8918 136.4 33.0924 136.133C33.2929 135.832 33.5435 135.565 33.8443 135.331C34.1451 135.063 34.496 134.93 34.8971 134.93C35.6324 134.93 36 135.615 36 136.985V143.302C36 144.705 35.6157 145.407 34.847 145.407C34.4459 145.407 34.095 145.274 33.7942 145.006ZM24.57 87.7014C24.57 87.0329 25.205 86.3478 26.475 85.646C31.2208 83.4402 33.6104 80.0813 33.6438 75.5695C33.6438 73.5642 33.1425 72.0436 32.1399 71.0075C31.1038 69.938 29.8338 69.3699 28.3298 69.303C27.8954 69.303 27.4943 69.3364 27.1267 69.4033C26.7591 69.4701 26.3914 69.6205 26.0238 69.8545C25.6562 70.0884 25.3554 70.2889 25.1214 70.456C24.854 70.6232 24.5533 70.9407 24.219 71.4085C23.8848 71.8764 23.6342 72.2274 23.4671 72.4613C23.2665 72.6618 23.0159 73.0796 22.7151 73.7146C22.3809 74.3496 22.1636 74.7674 22.0634 74.9679C21.9297 75.1684 21.679 75.653 21.3114 76.4217C20.9438 77.157 20.7265 77.6082 20.6597 77.7753C18.9552 81.1508 17.7521 83.3232 17.0502 84.2924C15.212 86.7656 12.8559 88.0021 9.98163 88.0021C7.34136 88.0021 5.10215 86.8993 3.26398 84.6935C1.42582 82.4877 0.506741 79.5466 0.506741 75.8703C0.506741 75.0347 0.607004 73.982 0.80753 72.712C1.00806 71.442 1.10832 70.6399 1.10832 70.3057C1.10832 69.8712 1.00806 69.4367 0.80753 69.0022C0.607004 68.5678 0.506741 68.2168 0.506741 67.9495C0.506741 67.4816 0.690557 67.1139 1.05819 66.8466C1.3924 66.5792 2.07753 66.3285 3.11359 66.0946C5.51991 65.5933 7.47505 65.2423 8.979 65.0418C9.17953 65.0084 9.38005 64.9917 9.58058 64.9917C10.483 64.9917 10.9341 65.3426 10.9341 66.0445C10.9341 66.6795 10.3158 67.398 9.07927 68.2001C5.16899 70.7735 3.21385 73.6311 3.21385 76.7726C3.21385 78.5774 3.66504 79.9811 4.56741 80.9837C5.46978 81.9529 6.63952 82.4375 8.07663 82.4375C8.87874 82.4375 9.59729 82.2871 10.2323 81.9863C10.8339 81.6856 11.4355 81.1341 12.037 80.332C12.6386 79.5299 13.1399 78.7946 13.541 78.1262C13.9086 77.4244 14.4434 76.3716 15.1452 74.9679L15.5463 74.1658C15.7134 73.8316 16.0142 73.23 16.4486 72.3611C16.8497 71.4921 17.1505 70.8905 17.351 70.5563C17.5181 70.2221 17.8022 69.6874 18.2032 68.9521C18.5709 68.2168 18.8884 67.6988 19.1557 67.398C19.3897 67.0638 19.7239 66.6293 20.1584 66.0946C20.5929 65.5598 20.9939 65.1755 21.3615 64.9416C21.7292 64.6742 22.1636 64.4068 22.665 64.1394C23.1663 63.8387 23.701 63.6214 24.2692 63.4877C24.8039 63.3541 25.3888 63.2872 26.0238 63.2872C26.0906 63.2872 26.1742 63.2872 26.2744 63.2872C29.2823 63.2872 31.7388 64.5405 33.6438 67.0471C35.5154 69.5537 36.4679 72.5783 36.5013 76.1209C36.5013 77.558 36.3676 79.0453 36.1003 80.5827C35.8329 82.12 35.6992 83.0224 35.6992 83.2898C35.6992 83.7911 35.8162 84.2757 36.0501 84.7436C36.3175 85.1781 36.4512 85.529 36.4512 85.7964C36.4512 86.7321 35.5488 87.3504 33.7441 87.6512C30.8699 88.1525 28.4802 88.4868 26.5752 88.6539C26.4081 88.6539 26.2577 88.6539 26.1241 88.6539C25.088 88.6539 24.57 88.3364 24.57 87.7014ZM33.7942 59.695C33.5268 59.461 33.2929 59.1937 33.0924 58.8929C32.8918 58.5587 32.4741 58.2746 31.8391 58.0406C31.1706 57.7733 30.3017 57.6396 29.2322 57.6396L19.6571 57.6897C18.7881 57.6897 18.0696 57.8234 17.5014 58.0908C16.8998 58.3247 16.5155 58.5921 16.3484 58.8929C16.1478 59.1937 15.9306 59.4777 15.6967 59.7451C15.4293 59.979 15.1285 60.096 14.7943 60.096C14.5269 60.096 14.293 59.9958 14.0924 59.7952C13.8919 59.5947 13.658 59.1937 13.3906 58.5921C12.8893 57.5894 12.4548 56.52 12.0872 55.3836C11.6861 54.2139 11.4689 53.4285 11.4355 53.0275C11.4355 52.2922 11.8699 51.9246 12.7389 51.9246L19.6571 51.9747H29.2322C30.3017 51.9747 31.1706 51.8577 31.8391 51.6238C32.4741 51.3564 32.8918 51.089 33.0924 50.8217C33.2929 50.5209 33.5435 50.2535 33.8443 50.0195C34.1451 49.7522 34.496 49.6185 34.8971 49.6185C35.6324 49.6185 36 50.3036 36 51.6739V57.9404C36 59.3775 35.6157 60.096 34.847 60.096C34.4459 60.096 34.095 59.9623 33.7942 59.695ZM5.41965 59.2438C4.35017 59.2104 3.38096 58.709 2.51201 57.7398C1.64306 56.7706 1.20858 55.7847 1.20858 54.7821C1.20858 54.6484 1.20858 54.5314 1.20858 54.4311C1.24201 53.6625 1.52608 53.0275 2.06082 52.5261C2.59556 51.9914 3.21385 51.724 3.9157 51.724C3.98254 51.724 4.03267 51.724 4.06609 51.724C5.10215 51.7574 6.05465 52.2755 6.9236 53.2781C7.75913 54.2807 8.17689 55.3001 8.17689 56.3361C8.17689 56.4364 8.17689 56.52 8.17689 56.5868C8.14347 57.4223 7.89281 58.074 7.42492 58.5419C6.9236 59.0098 6.33873 59.2438 5.67031 59.2438C5.60346 59.2438 5.51991 59.2438 5.41965 59.2438ZM33.7942 46.0607C33.5268 45.8268 33.2929 45.5594 33.0924 45.2586C32.8918 44.9244 32.4741 44.6403 31.8391 44.4064C31.1706 44.139 30.3017 44.0053 29.2322 44.0053H19.4064C17.8022 44.0053 16.6659 44.5233 15.9974 45.5594C15.563 46.161 15.1285 46.4618 14.694 46.4618C14.3598 46.4618 14.0924 46.3615 13.8919 46.161C13.658 45.9604 13.4073 45.5594 13.1399 44.9578C12.1373 42.7186 11.6026 41.0642 11.5357 39.9948C11.5357 39.2929 11.9702 38.942 12.8391 38.942L16.6993 38.9921C13.1901 36.9869 11.4355 34.0959 11.4355 30.3193C11.4355 26.2754 13.2068 23.6351 16.7494 22.3985C15.0115 21.4627 13.6914 20.2429 12.789 18.7389C11.8866 17.235 11.4355 15.5973 11.4355 13.826C11.4355 11.1857 12.2376 9.23059 13.8418 7.96059C15.446 6.65716 18.1197 5.67124 21.8629 5.00282L30.5356 3.34847C31.4046 3.18136 32.0897 2.88057 32.591 2.4461C33.0924 1.9782 33.4934 1.57715 33.7942 1.24294C34.095 0.875305 34.4626 0.691489 34.8971 0.691489C35.6324 0.691489 36 1.39333 36 2.79702V8.96322C36 10.3669 35.6157 11.0688 34.847 11.0688C34.4459 11.0688 34.095 10.8682 33.7942 10.4672C33.46 10.0327 33.0756 9.68178 32.6412 9.41441C32.1733 9.11362 31.672 8.96322 31.1372 8.96322C30.8699 8.96322 30.5858 8.99664 30.285 9.06349L22.1636 10.5674C21.1944 10.7345 20.4759 10.8682 20.008 10.9685C19.5401 11.0688 18.9385 11.2526 18.2032 11.5199C17.4346 11.7873 16.8831 12.0881 16.5489 12.4223C16.1813 12.7565 15.8638 13.2077 15.5964 13.7759C15.2956 14.344 15.1452 15.0125 15.1452 15.7811C15.1786 17.3185 15.847 18.6721 17.1505 19.8418C18.4539 20.9781 20.2921 21.5797 22.665 21.6465L29.2322 21.5964C30.3017 21.5964 31.1706 21.4794 31.8391 21.2455C32.4741 20.9781 32.8918 20.7108 33.0924 20.4434C33.2929 20.1426 33.5435 19.8752 33.8443 19.6413C34.1451 19.3739 34.496 19.2402 34.8971 19.2402C35.6324 19.2402 36 19.9254 36 21.2956V27.5621C36 28.9992 35.6157 29.7178 34.847 29.7178C34.4459 29.7178 34.1117 29.6008 33.8443 29.3668C33.5435 29.0995 33.2929 28.8154 33.0924 28.5146C32.8918 28.1804 32.4741 27.8963 31.8391 27.6624C31.1706 27.395 30.3017 27.2613 29.2322 27.2613H22.4644C20.125 27.2613 18.3035 27.6122 17.0001 28.3141C15.6967 29.0159 15.0449 30.2525 15.0449 32.0238C15.0449 32.0907 15.0449 32.1408 15.0449 32.1742C15.0449 33.8453 15.7635 35.2991 17.2006 36.5357C18.6043 37.7388 20.5594 38.3404 23.066 38.3404H29.2322C30.3017 38.3404 31.1706 38.2234 31.8391 37.9895C32.4741 37.7221 32.8918 37.4548 33.0924 37.1874C33.2929 36.8866 33.5435 36.6192 33.8443 36.3853C34.1451 36.1179 34.496 35.9842 34.8971 35.9842C35.6324 35.9842 36 36.6694 36 38.0396V44.3562C36 45.7599 35.6157 46.4618 34.847 46.4618C34.4459 46.4618 34.095 46.3281 33.7942 46.0607Z" fill="#EB4C3D"/>
</svg>
